<svg width="26" height="26" viewBox="0 0 26 26" xmlns="http://www.w3.org/2000/svg">
    <g stroke="#3F8CFF" stroke-width="2" fill="none" fill-rule="evenodd" stroke-linecap="round" stroke-linejoin="round">
        <path d="M21.383 9.383c0 1.736-.515 3.329-1.401 4.658a8.365 8.365 0 0 1-5.725 3.617 7.223 7.223 0 0 1-1.257.107c-.431 0-.85-.035-1.257-.107a8.365 8.365 0 0 1-5.725-3.617 8.344 8.344 0 0 1-1.4-4.658A8.377 8.377 0 0 1 13 1a8.377 8.377 0 0 1 8.383 8.383z"/>
        <path d="m24.077 20.723-1.976.467c-.443.108-.79.444-.886.887l-.419 1.76c-.228.958-1.45 1.245-2.084.491L13 17.765 7.288 24.34c-.635.754-1.856.467-2.084-.491l-.42-1.76a1.193 1.193 0 0 0-.885-.887l-1.976-.467c-.91-.215-1.234-1.353-.575-2.011l4.67-4.67a8.365 8.365 0 0 0 5.725 3.616c.407.072.826.107 1.257.107.431 0 .85-.035 1.257-.107a8.365 8.365 0 0 0 5.725-3.617l4.67 4.67c.659.647.335 1.785-.575 2zM13.695 5.766 14.4 7.18a.867.867 0 0 0 .575.42l1.281.215c.815.132 1.006.73.42 1.317l-.995.994a.849.849 0 0 0-.203.73l.287 1.234c.228.97-.287 1.353-1.15.838l-1.197-.706a.84.84 0 0 0-.79 0l-1.198.706c-.862.503-1.377.132-1.15-.838l.288-1.233c.048-.228-.036-.563-.204-.73l-.994-.995c-.586-.587-.395-1.173.42-1.317l1.281-.216a.873.873 0 0 0 .563-.419l.706-1.413c.348-.766.97-.766 1.354 0z"/>
    </g>
</svg>
