<svg width="22" height="22" viewBox="0 0 22 22" xmlns="http://www.w3.org/2000/svg">
    <defs>
        <filter color-interpolation-filters="auto" id="a">
            <feColorMatrix in="SourceGraphic" values="0 0 0 0 0.573954 0 0 0 0 0.573954 0 0 0 0 0.616225 0 0 0 1.000000 0"/>
        </filter>
    </defs>
    <g transform="translate(-474 -2776)" filter="url(#a)" fill="none" fill-rule="evenodd">
        <g fill="#91929E" fill-rule="nonzero">
            <path d="M484.86 2797.5h-6.22c-2.73 0-4.64-1.91-4.64-4.64v-7.77c0-2.73 1.91-4.64 4.64-4.64h3.83c1.22 0 2.42.5 3.28 1.36l2.39 2.38c.87.87 1.36 2.06 1.36 3.28v5.39c0 2.73-1.91 4.64-4.64 4.64zm-6.22-15.55c-1.91 0-3.14 1.23-3.14 3.14v7.77c0 1.91 1.23 3.14 3.14 3.14h6.22c1.91 0 3.14-1.23 3.14-3.14v-5.39c0-.83-.34-1.63-.92-2.22l-2.39-2.38a3.16 3.16 0 0 0-2.22-.92h-3.83z"/>
            <path d="M490.86 2793.06h-2.11c-.41 0-.75-.34-.75-.75v-4.84c0-.83-.34-1.63-.92-2.22l-2.39-2.38a3.16 3.16 0 0 0-2.22-.92h-1.72c-.41 0-.75-.34-.75-.75v-.56c0-2.73 1.91-4.64 4.64-4.64h3.83c1.22 0 2.42.5 3.28 1.36l2.39 2.39c.88.88 1.36 2.04 1.36 3.28v5.39c0 2.73-1.91 4.64-4.64 4.64zm-1.36-1.5h1.36c1.91 0 3.14-1.23 3.14-3.14v-5.39c0-.84-.33-1.63-.92-2.22l-2.39-2.39c-.58-.58-1.39-.92-2.22-.92h-3.83c-1.84 0-3.06 1.15-3.14 2.95h.97c1.22 0 2.42.5 3.28 1.36l2.39 2.38c.87.87 1.36 2.06 1.36 3.28v4.09z"/>
        </g>
    </g>
</svg>
