<svg width="32" height="32" viewBox="0 0 32 32" xmlns="http://www.w3.org/2000/svg">
    <defs>
        <filter color-interpolation-filters="auto" id="a">
            <feColorMatrix in="SourceGraphic" values="0 0 0 0 0.573954 0 0 0 0 0.573954 0 0 0 0 0.616225 0 0 0 1.000000 0"/>
        </filter>
    </defs>
    <g transform="translate(-830 -2771)" filter="url(#a)" fill="none" fill-rule="evenodd">
        <g transform="translate(830 2771)">
            <rect width="32" height="32" rx="4"/>
            <g stroke="#3F8CFF" stroke-linecap="round" stroke-linejoin="round" stroke-width="2">
                <path d="m17.26 7.44-8.21 8.69c-.31.33-.61.98-.67 1.43l-.37 3.24c-.13 1.17.71 1.97 1.87 1.77l3.22-.55c.45-.08 1.08-.41 1.39-.75l8.21-8.69c1.42-1.5 2.06-3.21-.15-5.3-2.2-2.07-3.87-1.34-5.29.16z"/>
                <path d="M15.89 8.89a6.126 6.126 0 0 0 5.45 5.15M7 25.839h18"/>
            </g>
        </g>
    </g>
</svg>
