<svg width="41" height="34" viewBox="0 0 41 34" xmlns="http://www.w3.org/2000/svg">
    <g fill="#FFF" fill-rule="nonzero">
        <path d="M20.5 25c-4.416 0-8-3.584-8-8s3.584-8 8-8 8 3.584 8 8-3.584 8-8 8zm0-13.229A5.236 5.236 0 0 0 15.271 17a5.236 5.236 0 0 0 5.229 5.229A5.236 5.236 0 0 0 25.729 17a5.236 5.236 0 0 0-5.229-5.229z"/>
        <path d="M20.51 34c-7.135 0-13.871-4.146-18.501-11.346-2.012-3.11-2.012-8.18 0-11.308C6.657 4.146 13.394 0 20.509 0c7.116 0 13.852 4.146 18.482 11.346 2.012 3.11 2.012 8.18 0 11.308C34.361 29.854 27.625 34 20.51 34zm0-31.173c-6.13 0-11.993 3.656-16.092 10.046-1.423 2.205-1.423 6.05 0 8.254 4.1 6.39 9.962 10.046 16.091 10.046 6.13 0 11.993-3.656 16.092-10.046 1.423-2.205 1.423-6.05 0-8.254-4.1-6.39-9.962-10.046-16.092-10.046z"/>
    </g>
</svg>
