<svg width="22" height="19" viewBox="0 0 22 19" xmlns="http://www.w3.org/2000/svg">
    <defs>
        <filter color-interpolation-filters="auto" id="a">
            <feColorMatrix in="SourceGraphic" values="0 0 0 0 0.573954 0 0 0 0 0.573954 0 0 0 0 0.616225 0 0 0 1.000000 0"/>
        </filter>
    </defs>
    <g transform="translate(-581 -2777)" filter="url(#a)" fill="none" fill-rule="evenodd" stroke-linecap="round" stroke-linejoin="round">
        <g stroke="#91929E" stroke-width="2">
            <path d="M595.365 2786.28c0 1.98-1.6 3.58-3.58 3.58s-3.58-1.6-3.58-3.58 1.6-3.58 3.58-3.58 3.58 1.6 3.58 3.58z"/>
            <path d="M591.785 2794.55c3.53 0 6.82-2.08 9.11-5.68.9-1.41.9-3.78 0-5.19-2.29-3.6-5.58-5.68-9.11-5.68-3.53 0-6.82 2.08-9.11 5.68-.9 1.41-.9 3.78 0 5.19 2.29 3.6 5.58 5.68 9.11 5.68z"/>
        </g>
    </g>
</svg>
