<svg fill="#6d5dd3" width="24" height="24" viewBox="0 0 24 24" xmlns="http://www.w3.org/2000/svg">
    <defs>
        <filter color-interpolation-filters="auto" id="a">
            <feColorMatrix in="SourceGraphic" values="0 0 0 0 0.573954 0 0 0 0 0.573954 0 0 0 0 0.616225 0 0 0 1.000000 0"/>
        </filter>
    </defs>
    <g transform="translate(-400 -2775)" filter="#6d5dd3" fill="none" fill-rule="evenodd">
        <path d="M400 2775h24v24h-24z"/>
        <path d="M412.241 2776.465a5.002 5.002 0 0 1 7.246 6.894l-.172.18-9.2 9.19a3.001 3.001 0 0 1-4.378-4.1l.135-.144 8.49-8.48a1 1 0 0 1 1.496 1.32l-.083.095-8.49 8.48a1.001 1.001 0 0 0 1.322 1.498l.095-.083 9.2-9.19a3.002 3.002 0 0 0-4.102-4.38l-.145.134-9.19 9.19a5.003 5.003 0 0 0 6.895 7.248l.181-.172 9.19-9.19a1 1 0 0 1 1.498 1.32l-.084.094-9.19 9.19a7.003 7.003 0 0 1-10.086-9.715l.182-.189 9.19-9.19z" fill="#6D5DD3"/>
    </g>
</svg>
