<svg width="24" height="24" viewBox="0 0 24 24" xmlns="http://www.w3.org/2000/svg">
    <defs>
        <filter color-interpolation-filters="auto" id="a">
            <feColorMatrix in="SourceGraphic" values="0 0 0 0 0.573954 0 0 0 0 0.573954 0 0 0 0 0.616225 0 0 0 1.000000 0"/>
        </filter>
        <filter color-interpolation-filters="auto" id="b">
            <feColorMatrix in="SourceGraphic" values="0 0 0 0 0.490196 0 0 0 0 0.521569 0 0 0 0 0.572549 0 0 0 1.000000 0"/>
        </filter>
    </defs>
    <g transform="translate(-509 -2775)" filter="url(#a)" fill="none" fill-rule="evenodd">
        <g transform="translate(509 2775)" filter="url(#b)">
            <path d="M18.598 9.734c1.73 0 3.3 1.018 4.013 2.603a4.44 4.44 0 0 1-.713 4.747v5.085a.83.83 0 0 1-.393.708.821.821 0 0 1-.806.033l-.099-.06-2.002-1.407-2.002 1.406a.821.821 0 0 1-.801.08.829.829 0 0 1-.488-.644l-.007-.116v-5.087a4.44 4.44 0 0 1-.711-4.745 4.398 4.398 0 0 1 4.01-2.603zm1.65 8.524a4.369 4.369 0 0 1-1.65.322 4.369 4.369 0 0 1-1.65-.322v2.32l1.178-.825a.821.821 0 0 1 .835-.067l.11.067 1.177.825v-2.32zM19.973 2a3.031 3.031 0 0 1 3.02 2.854l.005.186v5.8a5.538 5.538 0 0 0-1.649-1.472l-.001-4.328a1.38 1.38 0 0 0-1.234-1.375l-.14-.007H4.023c-.704 0-1.295.536-1.368 1.24l-.006.142v10.503c0 .715.541 1.304 1.234 1.374l.14.008h9.814l.135.225.148.217.078.104-.001 1.112H4.025a3.031 3.031 0 0 1-3.02-2.856L1 15.543V5.04a3.034 3.034 0 0 1 2.84-3.034L4.025 2h15.948zm-1.375 9.393a2.757 2.757 0 0 0-2.75 2.764 2.757 2.757 0 0 0 2.75 2.764 2.757 2.757 0 0 0 2.75-2.764 2.757 2.757 0 0 0-2.75-2.764zm-7.424 1.105c.434 0 .793.338.823.773a.828.828 0 0 1-.71.878l-.113.007h-4.95a.827.827 0 0 1-.822-.772.828.828 0 0 1 .71-.878l.112-.008h4.95zm6.6-6.08c.433 0 .792.337.822.772a.828.828 0 0 1-.71.878l-.113.008H6.224a.827.827 0 0 1-.822-.773.828.828 0 0 1 .71-.878l.112-.007h11.55z" fill="#212121" fill-rule="nonzero"/>
        </g>
    </g>
</svg>
