<svg width="20" height="20" viewBox="0 0 20 20" xmlns="http://www.w3.org/2000/svg">
    <defs>
        <filter color-interpolation-filters="auto" id="a">
            <feColorMatrix in="SourceGraphic" values="0 0 0 0 0.573954 0 0 0 0 0.573954 0 0 0 0 0.616225 0 0 0 1.000000 0"/>
        </filter>
    </defs>
    <g transform="translate(-978 -2894)" filter="#0a1629" fill="none" fill-rule="evenodd">
        <path d="M978 2894h20v20h-20z"/>
        <path d="M988 2904c.427 0 .78.322.828.736l.005.097v5.488l1.911-1.91c.3-.3.773-.324 1.1-.07l.079.07c.3.3.323.773.069 1.1l-.07.078-3.333 3.334c-.3.3-.773.323-1.1.069l-.078-.07-3.334-3.333a.833.833 0 0 1 1.1-1.248l.079.07 1.91 1.91v-5.488c0-.46.374-.833.834-.833zm-1.473-8.326a6.971 6.971 0 0 1 5.594 4.41l.089.249h.373c1.959 0 3.737 1.383 4.417 3.375l.065.2c.284 1.33.036 2.62-.679 3.845a.833.833 0 0 1-1.44-.84c.515-.88.683-1.753.506-2.59-.39-1.299-1.514-2.245-2.718-2.318l-.15-.005h-1a.833.833 0 0 1-.812-.644 5.287 5.287 0 0 0-4.438-4.027c-2.154-.215-4.248.935-5.25 2.865-.882 1.838-.717 4.86.364 6.517a.833.833 0 0 1-1.396.91c-1.402-2.15-1.602-5.79-.458-8.171 1.325-2.556 4.07-4.063 6.933-3.776z" fill="#FFFFFF" fill-rule="nonzero"/>
    </g>
</svg>
