<svg width="24" height="24" viewBox="0 0 24 24" xmlns="http://www.w3.org/2000/svg">
    <defs>
        <filter color-interpolation-filters="auto" id="a">
            <feColorMatrix in="SourceGraphic" values="0 0 0 0 0.573954 0 0 0 0 0.573954 0 0 0 0 0.616225 0 0 0 1.000000 0"/>
        </filter>
    </defs>
    <g transform="translate(-437 -2775)" filter="url(#a)" fill="none" fill-rule="evenodd">
        <path d="M437 2775h24v24h-24z"/>
        <path d="m447.093 2782.93.274.014a6 6 0 0 1 4.376 2.39 1 1 0 0 1-1.602 1.199 4 4 0 0 0-5.864-.591l-.168.159-2.988 2.987a4 4 0 0 0 .049 5.608 3.998 3.998 0 0 0 5.43.21l.165-.15 1.71-1.71a1 1 0 0 1 1.497 1.32l-.083.095-1.722 1.722a6 6 0 0 1-8.648-8.307l.176-.19 3-3a6 6 0 0 1 4.398-1.756zm11.035-5.173a6.003 6.003 0 0 1 .237 8.234l-.176.19-3 3a6 6 0 0 1-9.048-.648 1 1 0 1 1 1.602-1.198 4 4 0 0 0 5.864.59l.168-.159 2.988-2.987a4 4 0 0 0-.049-5.607 3.999 3.999 0 0 0-5.432-.21l-.165.15-1.72 1.71a1 1 0 0 1-1.494-1.324l.084-.094 1.73-1.72a6 6 0 0 1 8.411.073z" fill="#15C0E6"/>
    </g>
</svg>
