<svg width="20" height="21" viewBox="0 0 20 21" xmlns="http://www.w3.org/2000/svg">
    <defs>
        <filter color-interpolation-filters="auto" id="a">
            <feColorMatrix in="SourceGraphic" values="0 0 0 0 0.573954 0 0 0 0 0.573954 0 0 0 0 0.616225 0 0 0 1.000000 0"/>
        </filter>
    </defs>
    <g transform="translate(-431 -2717)" filter="url(#a)" fill="none" fill-rule="evenodd">
        <g transform="translate(431 2717)" fill="#444" fill-rule="nonzero">
            <rect x="1.25" y="17.51" width="17.5" height="2.5" rx="1"/>
            <path d="M2.187 8.135c.07-.003.138-.01.207-.021l2.028 6.896h11.155l2.03-6.896c.067.01.136.018.205.02a2.187 2.187 0 1 0-2.187-2.187c.002.362.096.717.271 1.033l-3.085 3.085-1.701-5.993a2.187 2.187 0 1 0-2.22 0l-1.701 5.993L4.104 6.98c.175-.316.268-.671.271-1.033a2.187 2.187 0 1 0-2.188 2.188z"/>
        </g>
    </g>
</svg>
