<svg width="191" height="48" viewBox="0 0 191 48" xmlns="http://www.w3.org/2000/svg">
    <g fill-rule="nonzero" fill="none">
        <path d="M56.34 0H11.86C5.309 0 0 5.31 0 11.86v6.922h44.91c6.313 0 11.43-5.118 11.43-11.431V0z" fill="#96F"/>
        <path d="M0 14.61h37.56v7.35c0 6.314-5.117 11.432-11.43 11.432H0V14.61z" fill="#635BFF"/>
        <path d="M19.301 29.218H0V48h7.871c6.313 0 11.43-5.118 11.43-11.432v-7.35z" fill="#0CF"/>
        <path d="M78.004 38.237h-2.44V14.762a2.454 2.454 0 0 1 2.453-2.454h12.407v1.538a2.968 2.968 0 0 1-2.968 2.966H80.98V23.5h8.796v1.524a2.968 2.968 0 0 1-2.968 2.969h-5.835v7.282a2.968 2.968 0 0 1-2.968 2.962zM97.509 38.237h-2.44v-25.15a2.454 2.454 0 0 1 2.453-2.454h2.955V35.27a2.969 2.969 0 0 1-2.968 2.968zM118.742 38.237l-1.046-2.696h-.143c-.91 1.143-1.847 1.939-2.81 2.386-.962.447-2.218.668-3.768.665-1.905 0-3.403-.544-4.496-1.631-1.092-1.088-1.639-2.637-1.64-4.647 0-2.105.736-3.657 2.208-4.657 1.472-1 3.695-1.552 6.668-1.657l3.44-.107v-.869c0-2.01-1.029-3.014-3.086-3.014a11.26 11.26 0 0 0-3.32.572 2.834 2.834 0 0 1-3.399-1.443l-.67-1.347a16.135 16.135 0 0 1 7.589-1.79c2.66 0 4.698.578 6.117 1.737 1.418 1.158 2.128 2.92 2.128 5.285V35.27a2.968 2.968 0 0 1-2.966 2.968h-.806zm-1.597-9.187-2.095.07c-1.574.049-2.744.333-3.51.852-.768.52-1.149 1.312-1.144 2.376 0 1.524.874 2.286 2.623 2.286 1.254 0 2.256-.36 3.006-1.082.75-.721 1.124-1.68 1.12-2.877V29.05zM141.922 32.348c0 2.032-.707 3.581-2.12 4.647-1.414 1.066-3.527 1.598-6.34 1.597a19.809 19.809 0 0 1-3.692-.296 13.85 13.85 0 0 1-2.858-.859v-3.791a.442.442 0 0 1 .618-.402c.902.372 1.83.678 2.777.914 1.085.294 2.202.455 3.326.478 1.962 0 2.943-.567 2.943-1.701a1.427 1.427 0 0 0-.39-1.039 5.656 5.656 0 0 0-1.347-.905c-.635-.335-1.487-.728-2.555-1.179-1.524-.635-2.644-1.226-3.36-1.772a5.016 5.016 0 0 1-1.56-1.87 6.174 6.174 0 0 1-.492-2.6c0-1.761.683-3.124 2.048-4.088s3.302-1.446 5.809-1.445c2.408.005 4.787.538 6.968 1.56l-.43 1.028a3.238 3.238 0 0 1-3.96 1.836h-.026a8.724 8.724 0 0 0-2.642-.41c-1.596 0-2.394.433-2.393 1.296 0 .484.256.905.762 1.26.507.354 1.64.88 3.38 1.577 1.547.628 2.681 1.213 3.404 1.757a5.2 5.2 0 0 1 1.596 1.879 5.78 5.78 0 0 1 .534 2.528zM154.495 34.282c.945 0 2.08-.207 3.404-.621v1.863a2.896 2.896 0 0 1-2.385 2.858c-.853.14-1.716.208-2.58.202-2.158 0-3.734-.547-4.726-1.64-.992-1.094-1.485-2.734-1.48-4.922v-9.551h-2.595v-2.286l2.98-1.808.914-2.454a2.667 2.667 0 0 1 2.494-1.732h1.61v4.218h5.55v1.094a2.97 2.97 0 0 1-2.967 2.968h-2.583v9.559c0 .762.215 1.33.647 1.701a2.545 2.545 0 0 0 1.717.55zM161.67 13.284c0-1.76.982-2.642 2.944-2.643 1.962-.001 2.943.88 2.943 2.643 0 .84-.245 1.493-.735 1.96-.49.468-1.226.7-2.208.7-1.962 0-2.943-.887-2.943-2.66zm2.668 24.959H161.9v-17.38a2.454 2.454 0 0 1 2.454-2.454h2.955v16.86a2.97 2.97 0 0 1-2.968 2.968l-.004.006zM191 28.288c0 3.227-.852 5.751-2.555 7.571-1.703 1.82-4.073 2.731-7.11 2.733-1.906 0-3.584-.417-5.036-1.25a8.322 8.322 0 0 1-3.35-3.592c-.782-1.56-1.172-3.38-1.172-5.462 0-3.24.845-5.757 2.535-7.555 1.69-1.797 4.067-2.696 7.129-2.696 1.905 0 3.584.414 5.037 1.24a8.287 8.287 0 0 1 3.35 3.566c.781 1.55 1.172 3.364 1.172 5.445zm-13.716 0c0 1.962.323 3.446.968 4.45.645 1.005 1.694 1.508 3.147 1.508 1.443 0 2.48-.5 3.11-1.498.632-.998.95-2.485.953-4.46 0-1.963-.317-3.435-.952-4.417-.635-.981-1.682-1.472-3.14-1.47-1.442 0-2.483.487-3.12 1.46-.638.975-.957 2.45-.958 4.427h-.008z" fill="#FFF"/>
    </g>
</svg>
