<svg width="26" height="26" viewBox="0 0 26 26" xmlns="http://www.w3.org/2000/svg">
    <g stroke="#3F8CFF" stroke-width="2" fill="none" fill-rule="evenodd" stroke-linecap="round" stroke-linejoin="round">
        <path d="M7.901 25h9.6c4.824 0 5.688-1.932 5.94-4.284l.9-9.6c.324-2.928-.516-5.316-5.64-5.316h-12c-5.124 0-5.964 2.388-5.64 5.316l.9 9.6C2.213 23.068 3.077 25 7.901 25zM7.901 5.8v-.96c0-2.124 0-3.84 3.84-3.84h1.92c3.84 0 3.84 1.716 3.84 3.84v.96"/>
        <path d="M15.101 14.2v1.224c0 1.308-.012 2.376-2.4 2.376-2.376 0-2.4-1.056-2.4-2.364V14.2c0-1.2 0-1.2 1.2-1.2h2.4c1.2 0 1.2 0 1.2 1.2z"/>
        <path d="M24.281 11.8a19.781 19.781 0 0 1-9.18 3.624M1.445 12.124a19.54 19.54 0 0 0 8.856 3.312"/>
    </g>
</svg>
