<svg width="26" height="26" viewBox="0 0 26 26" xmlns="http://www.w3.org/2000/svg">
    <g stroke="#3F8CFF" stroke-width="2" fill="none" fill-rule="evenodd" stroke-linecap="round" stroke-linejoin="round">
        <path d="M16.6 1H9.4C3.4 1 1 3.4 1 9.4v7.2c0 6 2.4 8.4 8.4 8.4h7.2c6 0 8.4-2.4 8.4-8.4V9.4c0-6-2.4-8.4-8.4-8.4z"/>
        <path d="M6.999 13.192h3.216c.852 0 1.428.648 1.428 1.428v1.788c0 .78-.576 1.428-1.428 1.428H8.427a1.44 1.44 0 0 1-1.428-1.428v-3.216zM6.999 13.192c0-3.348.624-3.912 2.508-5.028M14.367 13.192h3.216c.852 0 1.428.648 1.428 1.428v1.788c0 .78-.576 1.428-1.428 1.428h-1.788a1.44 1.44 0 0 1-1.428-1.428v-3.216zM14.368 13.192c0-3.348.624-3.912 2.508-5.028"/>
    </g>
</svg>
