<svg width="26" height="26" viewBox="0 0 26 26" xmlns="http://www.w3.org/2000/svg">
    <g stroke="#3F8CFF" stroke-width="2" fill="none" fill-rule="evenodd" stroke-linecap="round" stroke-linejoin="round">
        <path d="M9.4 25h7.2c6 0 8.4-2.4 8.4-8.4V9.4c0-6-2.4-8.4-8.4-8.4H9.4C3.4 1 1 3.4 1 9.4v7.2c0 6 2.4 8.4 8.4 8.4z"/>
        <path d="M19.001 12.808h-3.216c-.852 0-1.428-.648-1.428-1.428V9.592c0-.78.576-1.428 1.428-1.428h1.788c.78 0 1.428.648 1.428 1.428v3.216z"/>
        <path d="M19.001 12.808c0 3.348-.624 3.912-2.508 5.028M11.633 12.808H8.417c-.852 0-1.428-.648-1.428-1.428V9.592c0-.78.576-1.428 1.428-1.428h1.788c.78 0 1.428.648 1.428 1.428v3.216z"/>
        <path d="M11.632 12.808c0 3.348-.624 3.912-2.508 5.028"/>
    </g>
</svg>
