<svg width="21" height="21" viewBox="0 0 21 21" xmlns="http://www.w3.org/2000/svg">
    <defs>
        <filter color-interpolation-filters="auto" id="a">
            <feColorMatrix in="SourceGraphic" values="0 0 0 0 0.573954 0 0 0 0 0.573954 0 0 0 0 0.616225 0 0 0 1.000000 0"/>
        </filter>
    </defs>
    <g transform="translate(-875 -2776)" filter="url(#a)" fill="none" fill-rule="evenodd">
        <g fill="#91929E" fill-rule="nonzero">
            <path d="M888.487 2796.54h-.13c-4.44 0-6.58-1.75-6.95-5.67-.04-.41.26-.78.68-.82.4-.04.78.27.82.68.29 3.14 1.77 4.31 5.46 4.31h.13c4.07 0 5.51-1.44 5.51-5.51v-6.52c0-4.07-1.44-5.51-5.51-5.51h-.13c-3.71 0-5.19 1.19-5.46 4.39-.05.41-.4.72-.82.68a.751.751 0 0 1-.69-.81c.34-3.98 2.49-5.76 6.96-5.76h.13c4.91 0 7.01 2.1 7.01 7.01v6.52c0 4.91-2.1 7.01-7.01 7.01z"/>
            <path d="M888.247 2787.02h-11.38c-.41 0-.75-.34-.75-.75s.34-.75.75-.75h11.38c.41 0 .75.34.75.75s-.34.75-.75.75z"/>
            <path d="M879.097 2790.37c-.19 0-.38-.07-.53-.22l-3.35-3.35a.754.754 0 0 1 0-1.06l3.35-3.35c.29-.29.77-.29 1.06 0 .29.29.29.77 0 1.06l-2.82 2.82 2.82 2.82c.29.29.29.77 0 1.06-.14.15-.34.22-.53.22z"/>
        </g>
    </g>
</svg>
