<svg width="20" height="20" viewBox="0 0 20 20" xmlns="http://www.w3.org/2000/svg">
    <defs>
        <filter color-interpolation-filters="auto" id="a">
            <feColorMatrix in="SourceGraphic" values="0 0 0 0 0.573954 0 0 0 0 0.573954 0 0 0 0 0.616225 0 0 0 1.000000 0"/>
        </filter>
    </defs>
    <g transform="translate(-554 -2717)" filter="url(#a)" fill="none" fill-rule="evenodd">
        <g fill="#3F8CFF" fill-rule="nonzero">
            <path d="m571.05 2719.895-5.86-2.61c-.86-.38-2.16-.38-3.02 0l-5.86 2.61c-1.48.66-1.7 1.56-1.7 2.04s.22 1.38 1.7 2.04l5.86 2.61c.43.19.97.29 1.51.29s1.08-.1 1.51-.29l5.86-2.61c1.48-.66 1.7-1.56 1.7-2.04s-.21-1.38-1.7-2.04z"/>
            <path d="M563.68 2732.045c-.38 0-.76-.08-1.11-.23l-6.74-3c-1.03-.46-1.83-1.69-1.83-2.82 0-.41.33-.74.74-.74s.74.33.74.74c0 .54.45 1.24.95 1.46l6.74 3c.32.14.69.14 1.01 0l6.74-3c.5-.22.95-.91.95-1.46 0-.41.33-.74.74-.74s.74.33.74.74c0 1.12-.8 2.36-1.83 2.82l-6.74 3c-.34.15-.72.23-1.1.23z"/>
            <path d="M563.68 2737.005c-.38 0-.76-.08-1.11-.23l-6.74-3a3.085 3.085 0 0 1-1.83-2.82c0-.41.33-.74.74-.74s.74.33.74.74c0 .63.37 1.2.95 1.46l6.74 3c.32.14.69.14 1.01 0l6.74-3c.57-.25.95-.83.95-1.46 0-.41.33-.74.74-.74s.74.33.74.74c0 1.22-.72 2.32-1.83 2.82l-6.74 3c-.34.15-.72.23-1.1.23z"/>
        </g>
    </g>
</svg>
