<svg width="22" height="22" viewBox="0 0 22 22" xmlns="http://www.w3.org/2000/svg">
    <defs>
        <filter color-interpolation-filters="auto" id="a">
            <feColorMatrix in="SourceGraphic" values="0 0 0 0 0.573954 0 0 0 0 0.573954 0 0 0 0 0.616225 0 0 0 1.000000 0"/>
        </filter>
    </defs>
    <g transform="translate(-614 -2776)" filter="url(#a)" fill="none" fill-rule="evenodd">
        <g fill="#91929E" fill-rule="nonzero">
            <path d="M634.75 2797.5h-20c-.41 0-.75-.34-.75-.75s.34-.75.75-.75h20c.41 0 .75.34.75.75s-.34.75-.75.75z"/>
            <path d="M627 2797.5h-4.5c-.41 0-.75-.34-.75-.75v-18c0-1.72.95-2.75 2.55-2.75h.9c1.6 0 2.55 1.03 2.55 2.75v18c0 .41-.34.75-.75.75zm-3.75-1.5h3v-17.25c0-1.15-.54-1.25-1.05-1.25h-.9c-.51 0-1.05.1-1.05 1.25V2796zM619.75 2797.5h-4c-.41 0-.75-.34-.75-.75v-12c0-1.72.88-2.75 2.35-2.75h.8c1.47 0 2.35 1.03 2.35 2.75v12c0 .41-.34.75-.75.75zm-3.25-1.5h2.5v-11.25c0-1.25-.55-1.25-.85-1.25h-.8c-.3 0-.85 0-.85 1.25V2796zM633.75 2797.5h-4c-.41 0-.75-.34-.75-.75v-7c0-1.72.88-2.75 2.35-2.75h.8c1.47 0 2.35 1.03 2.35 2.75v7c0 .41-.34.75-.75.75zm-3.25-1.5h2.5v-6.25c0-1.25-.55-1.25-.85-1.25h-.8c-.3 0-.85 0-.85 1.25v6.25z"/>
        </g>
    </g>
</svg>
