<svg width="16" height="14" viewBox="0 0 16 14" xmlns="http://www.w3.org/2000/svg">
    <path d="M15.4 4.576C13.552 1.672 10.848 0 8 0 6.576 0 5.192.416 3.928 1.192 2.664 1.976 1.528 3.12.6 4.576c-.8 1.256-.8 3.296 0 4.552 1.848 2.912 4.552 4.576 7.4 4.576 1.424 0 2.808-.416 4.072-1.192 1.264-.784 2.4-1.928 3.328-3.384.8-1.248.8-3.296 0-4.552zM8 10.088a3.228 3.228 0 0 1-3.232-3.232A3.228 3.228 0 0 1 8 3.624a3.228 3.228 0 0 1 3.232 3.232A3.228 3.228 0 0 1 8 10.088z"  fill="#3f8cff" fill-rule="evenodd"/>
</svg>
