<svg width="26" height="27" viewBox="0 0 26 27" xmlns="http://www.w3.org/2000/svg">
    <g stroke="#3F8CFF" stroke-width="2" fill="none" fill-rule="evenodd" stroke-linecap="round" stroke-linejoin="round">
        <path d="M9.004 15.828H3.4c-1.32 0-2.4 1.08-2.4 2.4v7.2h8.004v-9.6z"/>
        <path d="M14.596 11.028h-3.204c-1.32 0-2.4 1.08-2.4 2.4v12h8.004v-12a2.4 2.4 0 0 0-2.4-2.4zM22.6 19.428h-5.604v6H25v-3.6c0-1.32-1.08-2.4-2.4-2.4zM13.624 1.512l.636 1.272c.084.18.312.348.504.372l1.152.192c.732.12.912.66.384 1.176l-.9.9a.767.767 0 0 0-.192.648l.252 1.104c.204.876-.264 1.212-1.032.756l-1.08-.636a.741.741 0 0 0-.708 0l-1.08.636c-.768.456-1.236.12-1.032-.756l.252-1.104c.048-.204-.036-.504-.192-.648L9.7 4.536c-.528-.528-.36-1.056.384-1.176l1.152-.192a.8.8 0 0 0 .504-.372l.636-1.272c.348-.696.9-.696 1.248-.012z"/>
    </g>
</svg>
