<svg width="48" height="44" viewBox="0 0 48 44" xmlns="http://www.w3.org/2000/svg">
    <defs>
        <linearGradient x1="-7.962%" y1="-15.572%" x2="56.345%" y2="97.061%" id="a">
            <stop stop-color="#8FC6FE" offset="0%"/>
            <stop stop-color="#56AAFF" offset="100%"/>
        </linearGradient>
    </defs>
    <g fill="none" fill-rule="evenodd">
        <path d="M8.914 37.029h7.71c1.199 0 2.338-.524 3.12-1.434l2.004-2.333a4.114 4.114 0 0 1 3.121-1.433h14.902a4.114 4.114 0 0 0 4.115-4.115v-23.6A4.114 4.114 0 0 0 39.77 0H8.914A4.114 4.114 0 0 0 4.8 4.114v28.8a4.114 4.114 0 0 0 4.114 4.115z" fill="#0080FF"/>
        <path d="M5.486 5.486h9.11c1.438 0 2.82.565 3.845 1.573l2.284 2.246a5.486 5.486 0 0 0 3.846 1.573h17.943A5.486 5.486 0 0 1 48 16.364V38.4a5.486 5.486 0 0 1-5.486 5.486H5.486A5.486 5.486 0 0 1 0 38.4V10.971a5.486 5.486 0 0 1 5.486-5.485z" fill="url(#a)"/>
        <path d="m17.224 25.27 6.067-6.393a1.371 1.371 0 0 1 1.99 0l6.067 6.393a1.334 1.334 0 0 1-.968 2.253h-2.42a.686.686 0 0 0-.686.686v2.648c0 .758-.614 1.372-1.371 1.372h-3.234a1.371 1.371 0 0 1-1.372-1.372V28.21a.686.686 0 0 0-.685-.686h-2.42a1.334 1.334 0 0 1-.968-2.253z" fill-opacity=".9" fill="#FFF"/>
    </g>
</svg>
