<svg width="24" height="26" viewBox="0 0 24 26" xmlns="http://www.w3.org/2000/svg">
    <g stroke="#3F8CFF" stroke-width="2" fill="none" fill-rule="evenodd" stroke-linecap="round" stroke-linejoin="round">
        <path d="M22.804 8.896v8.208c0 1.344-.72 2.592-1.884 3.276l-7.128 4.116a3.796 3.796 0 0 1-3.78 0L2.884 20.38A3.78 3.78 0 0 1 1 17.104V8.896c0-1.344.72-2.592 1.884-3.276l7.128-4.116a3.796 3.796 0 0 1 3.78 0L20.92 5.62a3.794 3.794 0 0 1 1.884 3.276z"/>
        <path d="M11.908 11.8a2.796 2.796 0 1 0 0-5.591 2.796 2.796 0 0 0 0 5.591zM16.708 18.592c0-2.16-2.148-3.912-4.8-3.912-2.652 0-4.8 1.752-4.8 3.912"/>
    </g>
</svg>
